<svg id="visual" viewBox="0 0 500 500" width="500" height="500" xmlns="http://www.w3.org/2000/svg" xmlns:xlink="http://www.w3.org/1999/xlink" version="1.1"><g stroke-width="1" stroke-linejoin="bevel"><path d="M233.2 200.2L272.8 200.2L251.2 170.7Z" fill="#cb3ada" stroke="#cb3ada"></path><path d="M272.8 200.2L298.3 195.2L251.2 170.7Z" fill="#002743" stroke="#002743"></path><path d="M298.3 195.2L261.8 140.1L251.2 170.7Z" fill="#003974" stroke="#003974"></path><path d="M251.2 170.7L175.7 182.7L233.2 200.2Z" fill="#8049c4" stroke="#8049c4"></path><path d="M272.8 90.6L259.8 135.7L261.8 140.1Z" fill="#003974" stroke="#003974"></path><path d="M261.8 140.1L259.8 135.7L251.2 170.7Z" fill="#002743" stroke="#002743"></path><path d="M216.2 116.1L175.7 182.7L251.2 170.7Z" fill="#cb3ada" stroke="#cb3ada"></path><path d="M175.7 182.7L177.7 213.2L233.2 200.2Z" fill="#0b1217" stroke="#0b1217"></path><path d="M233.2 200.2L262.8 301.8L272.8 200.2Z" fill="#0b1217" stroke="#0b1217"></path><path d="M298.3 195.2L332.3 177.7L261.8 140.1Z" fill="#a544d1" stroke="#a544d1"></path><path d="M259.8 135.7L216.2 116.1L251.2 170.7Z" fill="#3c45a1" stroke="#3c45a1"></path><path d="M216.2 116.1L169.7 132.1L175.7 182.7Z" fill="#1c408b" stroke="#1c408b"></path><path d="M175.7 182.7L150.1 212.2L177.7 213.2Z" fill="#5d49b4" stroke="#5d49b4"></path><path d="M362.9 143.1L272.8 90.6L261.8 140.1Z" fill="#1c408b" stroke="#1c408b"></path><path d="M259.8 135.7L272.8 90.6L216.2 116.1Z" fill="#5d49b4" stroke="#5d49b4"></path><path d="M139.1 67.6L132.7 94.6L169.7 132.1Z" fill="#081d2c" stroke="#081d2c"></path><path d="M104.1 134.7L150.1 212.2L175.7 182.7Z" fill="#003974" stroke="#003974"></path><path d="M218.2 297.8L233.2 200.2L177.7 213.2Z" fill="#1c408b" stroke="#1c408b"></path><path d="M218.2 297.8L262.8 301.8L233.2 200.2Z" fill="#081d2c" stroke="#081d2c"></path><path d="M272.8 200.2L262.8 301.8L298.3 195.2Z" fill="#8049c4" stroke="#8049c4"></path><path d="M298.3 195.2L365.3 275.8L332.3 177.7Z" fill="#002743" stroke="#002743"></path><path d="M179.7 298.8L218.2 297.8L177.7 213.2Z" fill="#081d2c" stroke="#081d2c"></path><path d="M407.9 165.7L362.9 143.1L332.3 177.7Z" fill="#a544d1" stroke="#a544d1"></path><path d="M332.3 177.7L362.9 143.1L261.8 140.1Z" fill="#00305b" stroke="#00305b"></path><path d="M150.1 212.2L179.7 298.8L177.7 213.2Z" fill="#1c408b" stroke="#1c408b"></path><path d="M307.3 337.3L307.8 326.3L262.8 301.8Z" fill="#8049c4" stroke="#8049c4"></path><path d="M262.8 301.8L365.3 275.8L298.3 195.2Z" fill="#1c408b" stroke="#1c408b"></path><path d="M262.8 301.8L307.8 326.3L365.3 275.8Z" fill="#a544d1" stroke="#a544d1"></path><path d="M199.2 351.3L262.8 301.8L218.2 297.8Z" fill="#cb3ada" stroke="#cb3ada"></path><path d="M394.9 94.6L363.3 92.1L362.9 143.1Z" fill="#a544d1" stroke="#a544d1"></path><path d="M362.9 143.1L363.3 92.1L272.8 90.6Z" fill="#8049c4" stroke="#8049c4"></path><path d="M167.7 350.9L183.7 328.3L179.7 298.8Z" fill="#a544d1" stroke="#a544d1"></path><path d="M179.7 298.8L183.7 328.3L218.2 297.8Z" fill="#a544d1" stroke="#a544d1"></path><path d="M139.1 67.6L169.7 132.1L216.2 116.1Z" fill="#003974" stroke="#003974"></path><path d="M169.7 132.1L104.1 134.7L175.7 182.7Z" fill="#cb3ada" stroke="#cb3ada"></path><path d="M307.8 326.3L371.9 315.3L365.3 275.8Z" fill="#3c45a1" stroke="#3c45a1"></path><path d="M258.2 407.9L307.3 337.3L262.8 301.8Z" fill="#003974" stroke="#003974"></path><path d="M426.9 193.2L407.9 165.7L332.3 177.7Z" fill="#00305b" stroke="#00305b"></path><path d="M312.3 31.6L256.2 33.6L272.8 90.6Z" fill="#1c408b" stroke="#1c408b"></path><path d="M272.8 90.6L256.2 33.6L216.2 116.1Z" fill="#0b1217" stroke="#0b1217"></path><path d="M132.7 94.6L104.1 134.7L169.7 132.1Z" fill="#a544d1" stroke="#a544d1"></path><path d="M150.1 212.2L73.1 293.8L179.7 298.8Z" fill="#5d49b4" stroke="#5d49b4"></path><path d="M183.7 328.3L199.2 351.3L218.2 297.8Z" fill="#00305b" stroke="#00305b"></path><path d="M256.2 33.6L139.1 67.6L216.2 116.1Z" fill="#3c45a1" stroke="#3c45a1"></path><path d="M132.7 94.6L73.1 98.1L104.1 134.7Z" fill="#cb3ada" stroke="#cb3ada"></path><path d="M363.3 92.1L312.3 31.6L272.8 90.6Z" fill="#002743" stroke="#002743"></path><path d="M307.3 337.3L371.9 315.3L307.8 326.3Z" fill="#cb3ada" stroke="#cb3ada"></path><path d="M365.3 275.8L426.9 193.2L332.3 177.7Z" fill="#00305b" stroke="#00305b"></path><path d="M104.1 134.7L81.6 183.7L150.1 212.2Z" fill="#5d49b4" stroke="#5d49b4"></path><path d="M183.7 328.3L167.7 350.9L199.2 351.3Z" fill="#00305b" stroke="#00305b"></path><path d="M428.4 141.7L394.9 94.6L362.9 143.1Z" fill="#8049c4" stroke="#8049c4"></path><path d="M363.3 92.1L336.3 0L312.3 31.6Z" fill="#5d49b4" stroke="#5d49b4"></path><path d="M443.4 240.2L426.9 193.2L365.3 275.8Z" fill="#0b1217" stroke="#0b1217"></path><path d="M407.9 165.7L428.4 141.7L362.9 143.1Z" fill="#5d49b4" stroke="#5d49b4"></path><path d="M77.1 311.3L167.7 350.9L179.7 298.8Z" fill="#3c45a1" stroke="#3c45a1"></path><path d="M426.9 193.2L428.4 141.7L407.9 165.7Z" fill="#00305b" stroke="#00305b"></path><path d="M307.3 337.3L315.3 366.9L371.9 315.3Z" fill="#3c45a1" stroke="#3c45a1"></path><path d="M258.2 407.9L315.3 366.9L307.3 337.3Z" fill="#3c45a1" stroke="#3c45a1"></path><path d="M258.2 407.9L262.8 301.8L199.2 351.3Z" fill="#00305b" stroke="#00305b"></path><path d="M305.8 0L249.2 0L256.2 33.6Z" fill="#1c408b" stroke="#1c408b"></path><path d="M256.2 33.6L161.7 0L139.1 67.6Z" fill="#1c408b" stroke="#1c408b"></path><path d="M412.9 314.8L443.4 240.2L365.3 275.8Z" fill="#cb3ada" stroke="#cb3ada"></path><path d="M426.9 193.2L500 185.2L428.4 141.7Z" fill="#1c408b" stroke="#1c408b"></path><path d="M336.3 0L305.8 0L312.3 31.6Z" fill="#3c45a1" stroke="#3c45a1"></path><path d="M312.3 31.6L305.8 0L256.2 33.6Z" fill="#003974" stroke="#003974"></path><path d="M413.9 357.9L412.9 314.8L371.9 315.3Z" fill="#002743" stroke="#002743"></path><path d="M371.9 315.3L412.9 314.8L365.3 275.8Z" fill="#002743" stroke="#002743"></path><path d="M104.1 134.7L43.6 119.1L81.6 183.7Z" fill="#3c45a1" stroke="#3c45a1"></path><path d="M139.1 67.6L73.1 98.1L132.7 94.6Z" fill="#003974" stroke="#003974"></path><path d="M39.6 89.6L73.1 98.1L71.6 0Z" fill="#00305b" stroke="#00305b"></path><path d="M63.6 277.8L150.1 212.2L81.6 183.7Z" fill="#a544d1" stroke="#a544d1"></path><path d="M63.6 277.8L73.1 293.8L150.1 212.2Z" fill="#1c408b" stroke="#1c408b"></path><path d="M34.6 199.2L63.6 277.8L81.6 183.7Z" fill="#002743" stroke="#002743"></path><path d="M405.9 0L363.3 92.1L394.9 94.6Z" fill="#1c408b" stroke="#1c408b"></path><path d="M405.9 0L336.3 0L363.3 92.1Z" fill="#003974" stroke="#003974"></path><path d="M73.1 293.8L77.1 311.3L179.7 298.8Z" fill="#003974" stroke="#003974"></path><path d="M46.6 308.3L77.1 311.3L73.1 293.8Z" fill="#00305b" stroke="#00305b"></path><path d="M249.2 0L161.7 0L256.2 33.6Z" fill="#8049c4" stroke="#8049c4"></path><path d="M77.1 311.3L139.1 371.9L167.7 350.9Z" fill="#5d49b4" stroke="#5d49b4"></path><path d="M167.7 350.9L159.7 439.4L199.2 351.3Z" fill="#5d49b4" stroke="#5d49b4"></path><path d="M500 88.1L434.4 80.1L428.4 141.7Z" fill="#0b1217" stroke="#0b1217"></path><path d="M428.4 141.7L434.4 80.1L394.9 94.6Z" fill="#003974" stroke="#003974"></path><path d="M247.8 447.4L258.2 407.9L159.7 439.4Z" fill="#003974" stroke="#003974"></path><path d="M315.3 366.9L413.9 357.9L371.9 315.3Z" fill="#003974" stroke="#003974"></path><path d="M43.6 119.1L34.6 199.2L81.6 183.7Z" fill="#003974" stroke="#003974"></path><path d="M39.6 89.6L43.6 119.1L73.1 98.1Z" fill="#002743" stroke="#002743"></path><path d="M73.1 98.1L43.6 119.1L104.1 134.7Z" fill="#8049c4" stroke="#8049c4"></path><path d="M412.9 314.8L460.4 290.8L443.4 240.2Z" fill="#3c45a1" stroke="#3c45a1"></path><path d="M443.4 240.2L500 191.7L426.9 193.2Z" fill="#cb3ada" stroke="#cb3ada"></path><path d="M453.4 356.9L460.4 290.8L412.9 314.8Z" fill="#002743" stroke="#002743"></path><path d="M335.3 417.4L413.9 357.9L315.3 366.9Z" fill="#00305b" stroke="#00305b"></path><path d="M71.6 0L73.1 98.1L139.1 67.6Z" fill="#a544d1" stroke="#a544d1"></path><path d="M0 137.7L0 219.2L34.6 199.2Z" fill="#0b1217" stroke="#0b1217"></path><path d="M247.8 447.4L282.8 426.9L258.2 407.9Z" fill="#081d2c" stroke="#081d2c"></path><path d="M258.2 407.9L282.8 426.9L315.3 366.9Z" fill="#002743" stroke="#002743"></path><path d="M0 298.8L46.6 308.3L63.6 277.8Z" fill="#3c45a1" stroke="#3c45a1"></path><path d="M63.6 277.8L46.6 308.3L73.1 293.8Z" fill="#a544d1" stroke="#a544d1"></path><path d="M77.1 311.3L29.6 359.9L139.1 371.9Z" fill="#0b1217" stroke="#0b1217"></path><path d="M161.7 0L110.1 0L139.1 67.6Z" fill="#cb3ada" stroke="#cb3ada"></path><path d="M282.8 426.9L335.3 417.4L315.3 366.9Z" fill="#5d49b4" stroke="#5d49b4"></path><path d="M434.4 80.1L405.9 0L394.9 94.6Z" fill="#003974" stroke="#003974"></path><path d="M500 303.8L500 191.7L443.4 240.2Z" fill="#cb3ada" stroke="#cb3ada"></path><path d="M434.4 80.1L475.4 29.6L405.9 0Z" fill="#8049c4" stroke="#8049c4"></path><path d="M500 191.7L500 185.2L426.9 193.2Z" fill="#cb3ada" stroke="#cb3ada"></path><path d="M0 137.7L34.6 199.2L43.6 119.1Z" fill="#0b1217" stroke="#0b1217"></path><path d="M34.6 199.2L0 219.2L63.6 277.8Z" fill="#3c45a1" stroke="#3c45a1"></path><path d="M159.7 439.4L258.2 407.9L199.2 351.3Z" fill="#0b1217" stroke="#0b1217"></path><path d="M389.9 500L405.9 442.4L335.3 417.4Z" fill="#a544d1" stroke="#a544d1"></path><path d="M159.7 439.4L167.7 350.9L139.1 371.9Z" fill="#003974" stroke="#003974"></path><path d="M0 107.1L43.6 119.1L39.6 89.6Z" fill="#003974" stroke="#003974"></path><path d="M0 107.1L0 137.7L43.6 119.1Z" fill="#cb3ada" stroke="#cb3ada"></path><path d="M415.4 410.4L453.4 356.9L413.9 357.9Z" fill="#5d49b4" stroke="#5d49b4"></path><path d="M413.9 357.9L453.4 356.9L412.9 314.8Z" fill="#003974" stroke="#003974"></path><path d="M460.4 290.8L500 303.8L443.4 240.2Z" fill="#5d49b4" stroke="#5d49b4"></path><path d="M110.1 0L71.6 0L139.1 67.6Z" fill="#3c45a1" stroke="#3c45a1"></path><path d="M129.1 461.4L159.7 439.4L79.6 438.4Z" fill="#3c45a1" stroke="#3c45a1"></path><path d="M0 92.6L0 107.1L39.6 89.6Z" fill="#003974" stroke="#003974"></path><path d="M500 185.2L500 88.1L428.4 141.7Z" fill="#a544d1" stroke="#a544d1"></path><path d="M500 422.9L473.4 349.3L453.4 356.9Z" fill="#0b1217" stroke="#0b1217"></path><path d="M453.4 356.9L473.4 349.3L460.4 290.8Z" fill="#8049c4" stroke="#8049c4"></path><path d="M473.4 349.3L500 303.8L460.4 290.8Z" fill="#081d2c" stroke="#081d2c"></path><path d="M0 0L0 92.6L39.6 89.6Z" fill="#002743" stroke="#002743"></path><path d="M335.3 417.4L415.4 410.4L413.9 357.9Z" fill="#8049c4" stroke="#8049c4"></path><path d="M405.9 442.4L415.4 410.4L335.3 417.4Z" fill="#00305b" stroke="#00305b"></path><path d="M0 219.2L0 298.8L63.6 277.8Z" fill="#002743" stroke="#002743"></path><path d="M46.6 308.3L29.6 359.9L77.1 311.3Z" fill="#0b1217" stroke="#0b1217"></path><path d="M500 54.6L475.4 29.6L434.4 80.1Z" fill="#00305b" stroke="#00305b"></path><path d="M0 298.8L29.6 359.9L46.6 308.3Z" fill="#5d49b4" stroke="#5d49b4"></path><path d="M500 88.1L500 54.6L434.4 80.1Z" fill="#081d2c" stroke="#081d2c"></path><path d="M473.4 349.3L500 346.3L500 303.8Z" fill="#0b1217" stroke="#0b1217"></path><path d="M500 422.9L500 346.3L473.4 349.3Z" fill="#002743" stroke="#002743"></path><path d="M159.7 439.4L212.2 481.4L247.8 447.4Z" fill="#00305b" stroke="#00305b"></path><path d="M308.3 500L335.3 417.4L282.8 426.9Z" fill="#1c408b" stroke="#1c408b"></path><path d="M205.7 500L212.2 481.4L159.7 439.4Z" fill="#1c408b" stroke="#1c408b"></path><path d="M500 0L473.4 0L475.4 29.6Z" fill="#1c408b" stroke="#1c408b"></path><path d="M475.4 29.6L473.4 0L405.9 0Z" fill="#003974" stroke="#003974"></path><path d="M308.3 500L282.8 426.9L247.8 447.4Z" fill="#8049c4" stroke="#8049c4"></path><path d="M415.4 410.4L500 422.9L453.4 356.9Z" fill="#081d2c" stroke="#081d2c"></path><path d="M79.6 438.4L159.7 439.4L139.1 371.9Z" fill="#a544d1" stroke="#a544d1"></path><path d="M29.6 359.9L79.6 438.4L139.1 371.9Z" fill="#00305b" stroke="#00305b"></path><path d="M220.2 500L237.8 500L212.2 481.4Z" fill="#003974" stroke="#003974"></path><path d="M212.2 481.4L237.8 500L247.8 447.4Z" fill="#5d49b4" stroke="#5d49b4"></path><path d="M205.7 500L220.2 500L212.2 481.4Z" fill="#cb3ada" stroke="#cb3ada"></path><path d="M0 298.8L0 371.3L29.6 359.9Z" fill="#0b1217" stroke="#0b1217"></path><path d="M29.6 359.9L0 410.9L79.6 438.4Z" fill="#cb3ada" stroke="#cb3ada"></path><path d="M129.1 461.4L205.7 500L159.7 439.4Z" fill="#00305b" stroke="#00305b"></path><path d="M75.1 500L205.7 500L129.1 461.4Z" fill="#8049c4" stroke="#8049c4"></path><path d="M500 54.6L500 0L475.4 29.6Z" fill="#a544d1" stroke="#a544d1"></path><path d="M237.8 500L308.3 500L247.8 447.4Z" fill="#002743" stroke="#002743"></path><path d="M71.6 0L0 0L39.6 89.6Z" fill="#1c408b" stroke="#1c408b"></path><path d="M0 371.3L0 410.9L29.6 359.9Z" fill="#002743" stroke="#002743"></path><path d="M79.6 438.4L75.1 500L129.1 461.4Z" fill="#cb3ada" stroke="#cb3ada"></path><path d="M0 410.9L0 411.4L79.6 438.4Z" fill="#00305b" stroke="#00305b"></path><path d="M308.3 500L389.9 500L335.3 417.4Z" fill="#a544d1" stroke="#a544d1"></path><path d="M405.9 442.4L500 422.9L415.4 410.4Z" fill="#081d2c" stroke="#081d2c"></path><path d="M500 482.4L500 422.9L405.9 442.4Z" fill="#003974" stroke="#003974"></path><path d="M389.9 500L419.4 500L405.9 442.4Z" fill="#cb3ada" stroke="#cb3ada"></path><path d="M32.6 500L75.1 500L79.6 438.4Z" fill="#cb3ada" stroke="#cb3ada"></path><path d="M0 411.4L32.6 500L79.6 438.4Z" fill="#5d49b4" stroke="#5d49b4"></path><path d="M419.4 500L500 482.4L405.9 442.4Z" fill="#003974" stroke="#003974"></path><path d="M419.4 500L500 500L500 482.4Z" fill="#003974" stroke="#003974"></path><path d="M0 411.4L0 500L32.6 500Z" fill="#002743" stroke="#002743"></path></g></svg>