<svg id="visual" viewBox="0 0 500 500" width="500" height="500" xmlns="http://www.w3.org/2000/svg" xmlns:xlink="http://www.w3.org/1999/xlink" version="1.1"><g stroke-width="1" stroke-linejoin="bevel"><path d="M256 240L271 230L238 218Z" fill="#ec30a2" stroke="#ec30a2"></path><path d="M267 168L213 203L238 218Z" fill="#ec30a2" stroke="#ec30a2"></path><path d="M238 218L195 244L256 240Z" fill="#ec30a2" stroke="#ec30a2"></path><path d="M327 271L306 223L271 230Z" fill="#183056" stroke="#183056"></path><path d="M271 230L267 168L238 218Z" fill="#83429a" stroke="#83429a"></path><path d="M306 223L267 168L271 230Z" fill="#2c376b" stroke="#2c376b"></path><path d="M213 203L195 244L238 218Z" fill="#c939a4" stroke="#c939a4"></path><path d="M267 168L222 143L213 203Z" fill="#453d7e" stroke="#453d7e"></path><path d="M213 203L163 212L195 244Z" fill="#453d7e" stroke="#453d7e"></path><path d="M266 310L327 271L256 240Z" fill="#2c376b" stroke="#2c376b"></path><path d="M256 240L327 271L271 230Z" fill="#83429a" stroke="#83429a"></path><path d="M195 244L266 310L256 240Z" fill="#c939a4" stroke="#c939a4"></path><path d="M327 271L341 249L306 223Z" fill="#ec30a2" stroke="#ec30a2"></path><path d="M306 223L327 166L267 168Z" fill="#a63fa2" stroke="#a63fa2"></path><path d="M356 216L327 166L306 223Z" fill="#ec30a2" stroke="#ec30a2"></path><path d="M267 168L228 119L222 143Z" fill="#ec30a2" stroke="#ec30a2"></path><path d="M136 160L163 212L213 203Z" fill="#63418e" stroke="#63418e"></path><path d="M341 249L356 216L306 223Z" fill="#0d1d2b" stroke="#0d1d2b"></path><path d="M314 70L228 119L267 168Z" fill="#453d7e" stroke="#453d7e"></path><path d="M222 143L136 160L213 203Z" fill="#0d1d2b" stroke="#0d1d2b"></path><path d="M163 212L136 245L195 244Z" fill="#63418e" stroke="#63418e"></path><path d="M194 332L262 344L266 310Z" fill="#2c376b" stroke="#2c376b"></path><path d="M104 199L136 245L163 212Z" fill="#63418e" stroke="#63418e"></path><path d="M194 332L266 310L195 244Z" fill="#0d1d2b" stroke="#0d1d2b"></path><path d="M266 310L315 332L327 271Z" fill="#2c376b" stroke="#2c376b"></path><path d="M262 344L315 332L266 310Z" fill="#0e2740" stroke="#0e2740"></path><path d="M327 271L355 300L341 249Z" fill="#0b1217" stroke="#0b1217"></path><path d="M341 249L405 253L356 216Z" fill="#183056" stroke="#183056"></path><path d="M172 323L194 332L195 244Z" fill="#63418e" stroke="#63418e"></path><path d="M356 216L356 147L327 166Z" fill="#0b1217" stroke="#0b1217"></path><path d="M327 166L314 70L267 168Z" fill="#83429a" stroke="#83429a"></path><path d="M315 332L355 300L327 271Z" fill="#c939a4" stroke="#c939a4"></path><path d="M136 287L172 323L195 244Z" fill="#453d7e" stroke="#453d7e"></path><path d="M136 113L136 160L222 143Z" fill="#2c376b" stroke="#2c376b"></path><path d="M136 245L136 287L195 244Z" fill="#0e2740" stroke="#0e2740"></path><path d="M407 113L362 120L356 147Z" fill="#0b1217" stroke="#0b1217"></path><path d="M356 147L362 120L327 166Z" fill="#ec30a2" stroke="#ec30a2"></path><path d="M422 191L356 147L356 216Z" fill="#63418e" stroke="#63418e"></path><path d="M314 70L224 73L228 119Z" fill="#2c376b" stroke="#2c376b"></path><path d="M228 119L136 113L222 143Z" fill="#0d1d2b" stroke="#0d1d2b"></path><path d="M136 160L104 199L163 212Z" fill="#183056" stroke="#183056"></path><path d="M136 245L105 275L136 287Z" fill="#ec30a2" stroke="#ec30a2"></path><path d="M355 300L405 253L341 249Z" fill="#0b1217" stroke="#0b1217"></path><path d="M88 267L105 275L136 245Z" fill="#453d7e" stroke="#453d7e"></path><path d="M136 287L130 324L172 323Z" fill="#0d1d2b" stroke="#0d1d2b"></path><path d="M105 275L130 324L136 287Z" fill="#2c376b" stroke="#2c376b"></path><path d="M167 387L226 381L194 332Z" fill="#c939a4" stroke="#c939a4"></path><path d="M194 332L226 381L262 344Z" fill="#453d7e" stroke="#453d7e"></path><path d="M167 387L194 332L172 323Z" fill="#2c376b" stroke="#2c376b"></path><path d="M262 344L279 388L315 332Z" fill="#0d1d2b" stroke="#0d1d2b"></path><path d="M177 54L136 113L228 119Z" fill="#2c376b" stroke="#2c376b"></path><path d="M136 160L100 167L104 199Z" fill="#c939a4" stroke="#c939a4"></path><path d="M362 120L314 70L327 166Z" fill="#ec30a2" stroke="#ec30a2"></path><path d="M114 116L100 167L136 160Z" fill="#63418e" stroke="#63418e"></path><path d="M104 199L88 267L136 245Z" fill="#0b1217" stroke="#0b1217"></path><path d="M226 381L279 388L262 344Z" fill="#ec30a2" stroke="#ec30a2"></path><path d="M398 367L411 284L355 300Z" fill="#ec30a2" stroke="#ec30a2"></path><path d="M355 300L411 284L405 253Z" fill="#83429a" stroke="#83429a"></path><path d="M363 359L355 300L315 332Z" fill="#a63fa2" stroke="#a63fa2"></path><path d="M425 222L356 216L405 253Z" fill="#83429a" stroke="#83429a"></path><path d="M425 222L422 191L356 216Z" fill="#a63fa2" stroke="#a63fa2"></path><path d="M456 233L425 222L405 253Z" fill="#63418e" stroke="#63418e"></path><path d="M75 174L88 267L104 199Z" fill="#c939a4" stroke="#c939a4"></path><path d="M105 275L66 318L130 324Z" fill="#0d1d2b" stroke="#0d1d2b"></path><path d="M334 395L363 359L315 332Z" fill="#183056" stroke="#183056"></path><path d="M117 54L114 116L136 113Z" fill="#63418e" stroke="#63418e"></path><path d="M136 113L114 116L136 160Z" fill="#2c376b" stroke="#2c376b"></path><path d="M362 120L352 65L314 70Z" fill="#0e2740" stroke="#0e2740"></path><path d="M231 0L177 54L224 73Z" fill="#83429a" stroke="#83429a"></path><path d="M407 113L352 65L362 120Z" fill="#a63fa2" stroke="#a63fa2"></path><path d="M224 73L177 54L228 119Z" fill="#183056" stroke="#183056"></path><path d="M263 23L224 73L314 70Z" fill="#63418e" stroke="#63418e"></path><path d="M114 116L75 174L100 167Z" fill="#183056" stroke="#183056"></path><path d="M100 167L75 174L104 199Z" fill="#0e2740" stroke="#0e2740"></path><path d="M75 353L167 387L130 324Z" fill="#2c376b" stroke="#2c376b"></path><path d="M130 324L167 387L172 323Z" fill="#a63fa2" stroke="#a63fa2"></path><path d="M240 444L282 425L279 388Z" fill="#183056" stroke="#183056"></path><path d="M426 144L407 113L356 147Z" fill="#2c376b" stroke="#2c376b"></path><path d="M422 191L426 144L356 147Z" fill="#63418e" stroke="#63418e"></path><path d="M465 168L426 144L422 191Z" fill="#0e2740" stroke="#0e2740"></path><path d="M282 425L334 395L279 388Z" fill="#83429a" stroke="#83429a"></path><path d="M279 388L334 395L315 332Z" fill="#63418e" stroke="#63418e"></path><path d="M323 23L263 23L314 70Z" fill="#2c376b" stroke="#2c376b"></path><path d="M411 284L456 233L405 253Z" fill="#a63fa2" stroke="#a63fa2"></path><path d="M425 222L456 233L422 191Z" fill="#ec30a2" stroke="#ec30a2"></path><path d="M475 310L456 233L411 284Z" fill="#0d1d2b" stroke="#0d1d2b"></path><path d="M177 54L149 50L136 113Z" fill="#183056" stroke="#183056"></path><path d="M33 111L32 161L75 174Z" fill="#0b1217" stroke="#0b1217"></path><path d="M184 0L149 50L177 54Z" fill="#183056" stroke="#183056"></path><path d="M393 387L398 367L363 359Z" fill="#0b1217" stroke="#0b1217"></path><path d="M363 359L398 367L355 300Z" fill="#183056" stroke="#183056"></path><path d="M240 444L279 388L226 381Z" fill="#a63fa2" stroke="#a63fa2"></path><path d="M334 395L393 387L363 359Z" fill="#2c376b" stroke="#2c376b"></path><path d="M355 0L323 23L352 65Z" fill="#63418e" stroke="#63418e"></path><path d="M352 65L323 23L314 70Z" fill="#453d7e" stroke="#453d7e"></path><path d="M22 276L66 318L88 267Z" fill="#63418e" stroke="#63418e"></path><path d="M88 267L66 318L105 275Z" fill="#83429a" stroke="#83429a"></path><path d="M362 423L393 387L334 395Z" fill="#453d7e" stroke="#453d7e"></path><path d="M475 347L475 310L411 284Z" fill="#a63fa2" stroke="#a63fa2"></path><path d="M451 81L417 79L407 113Z" fill="#83429a" stroke="#83429a"></path><path d="M407 113L417 79L352 65Z" fill="#63418e" stroke="#63418e"></path><path d="M432 62L417 79L451 81Z" fill="#0e2740" stroke="#0e2740"></path><path d="M456 233L465 168L422 191Z" fill="#ec30a2" stroke="#ec30a2"></path><path d="M134 0L117 54L149 50Z" fill="#183056" stroke="#183056"></path><path d="M149 50L117 54L136 113Z" fill="#a63fa2" stroke="#a63fa2"></path><path d="M185 471L240 444L167 387Z" fill="#0e2740" stroke="#0e2740"></path><path d="M167 387L240 444L226 381Z" fill="#63418e" stroke="#63418e"></path><path d="M282 425L322 439L334 395Z" fill="#63418e" stroke="#63418e"></path><path d="M66 318L75 353L130 324Z" fill="#0d1d2b" stroke="#0d1d2b"></path><path d="M317 0L231 0L263 23Z" fill="#83429a" stroke="#83429a"></path><path d="M263 23L231 0L224 73Z" fill="#183056" stroke="#183056"></path><path d="M302 500L322 439L282 425Z" fill="#a63fa2" stroke="#a63fa2"></path><path d="M322 439L362 423L334 395Z" fill="#183056" stroke="#183056"></path><path d="M355 0L317 0L323 23Z" fill="#0b1217" stroke="#0b1217"></path><path d="M323 23L317 0L263 23Z" fill="#c939a4" stroke="#c939a4"></path><path d="M33 111L75 174L114 116Z" fill="#ec30a2" stroke="#ec30a2"></path><path d="M0 228L22 276L88 267Z" fill="#0d1d2b" stroke="#0d1d2b"></path><path d="M231 0L184 0L177 54Z" fill="#2c376b" stroke="#2c376b"></path><path d="M475 347L398 367L472 398Z" fill="#83429a" stroke="#83429a"></path><path d="M475 347L411 284L398 367Z" fill="#0e2740" stroke="#0e2740"></path><path d="M456 233L500 203L465 168Z" fill="#63418e" stroke="#63418e"></path><path d="M451 81L407 113L426 144Z" fill="#2c376b" stroke="#2c376b"></path><path d="M417 79L371 0L352 65Z" fill="#a63fa2" stroke="#a63fa2"></path><path d="M0 228L88 267L75 174Z" fill="#ec30a2" stroke="#ec30a2"></path><path d="M66 318L49 366L75 353Z" fill="#453d7e" stroke="#453d7e"></path><path d="M500 108L451 81L426 144Z" fill="#83429a" stroke="#83429a"></path><path d="M371 0L355 0L352 65Z" fill="#ec30a2" stroke="#ec30a2"></path><path d="M500 296L500 237L456 233Z" fill="#0b1217" stroke="#0b1217"></path><path d="M465 168L500 108L426 144Z" fill="#c939a4" stroke="#c939a4"></path><path d="M500 237L500 203L456 233Z" fill="#0e2740" stroke="#0e2740"></path><path d="M117 54L33 111L114 116Z" fill="#63418e" stroke="#63418e"></path><path d="M32 161L0 228L75 174Z" fill="#0d1d2b" stroke="#0d1d2b"></path><path d="M23 74L33 111L117 54Z" fill="#0b1217" stroke="#0b1217"></path><path d="M500 203L500 175L465 168Z" fill="#0b1217" stroke="#0b1217"></path><path d="M432 62L371 0L417 79Z" fill="#183056" stroke="#183056"></path><path d="M472 0L371 0L432 62Z" fill="#0b1217" stroke="#0b1217"></path><path d="M0 338L49 366L66 318Z" fill="#ec30a2" stroke="#ec30a2"></path><path d="M100 434L151 451L167 387Z" fill="#c939a4" stroke="#c939a4"></path><path d="M92 425L167 387L75 353Z" fill="#453d7e" stroke="#453d7e"></path><path d="M240 444L263 500L282 425Z" fill="#0e2740" stroke="#0e2740"></path><path d="M472 398L398 367L393 387Z" fill="#83429a" stroke="#83429a"></path><path d="M475 310L500 296L456 233Z" fill="#83429a" stroke="#83429a"></path><path d="M184 0L134 0L149 50Z" fill="#c939a4" stroke="#c939a4"></path><path d="M0 171L0 228L32 161Z" fill="#183056" stroke="#183056"></path><path d="M22 276L0 338L66 318Z" fill="#c939a4" stroke="#c939a4"></path><path d="M500 325L500 296L475 310Z" fill="#c939a4" stroke="#c939a4"></path><path d="M151 451L185 471L167 387Z" fill="#453d7e" stroke="#453d7e"></path><path d="M49 366L92 425L75 353Z" fill="#0b1217" stroke="#0b1217"></path><path d="M137 500L194 500L185 471Z" fill="#63418e" stroke="#63418e"></path><path d="M0 147L0 171L32 161Z" fill="#83429a" stroke="#83429a"></path><path d="M134 0L118 0L117 54Z" fill="#c939a4" stroke="#c939a4"></path><path d="M92 425L100 434L167 387Z" fill="#183056" stroke="#183056"></path><path d="M0 228L0 288L22 276Z" fill="#63418e" stroke="#63418e"></path><path d="M475 347L500 325L475 310Z" fill="#ec30a2" stroke="#ec30a2"></path><path d="M0 99L0 147L33 111Z" fill="#0e2740" stroke="#0e2740"></path><path d="M33 111L0 147L32 161Z" fill="#0b1217" stroke="#0b1217"></path><path d="M500 175L500 108L465 168Z" fill="#c939a4" stroke="#c939a4"></path><path d="M451 81L500 61L432 62Z" fill="#0b1217" stroke="#0b1217"></path><path d="M20 0L23 74L117 54Z" fill="#0d1d2b" stroke="#0d1d2b"></path><path d="M194 500L263 500L240 444Z" fill="#0e2740" stroke="#0e2740"></path><path d="M322 439L357 500L362 423Z" fill="#c939a4" stroke="#c939a4"></path><path d="M464 437L472 398L393 387Z" fill="#183056" stroke="#183056"></path><path d="M464 437L393 387L423 478Z" fill="#83429a" stroke="#83429a"></path><path d="M475 347L500 415L500 325Z" fill="#c939a4" stroke="#c939a4"></path><path d="M0 288L0 338L22 276Z" fill="#2c376b" stroke="#2c376b"></path><path d="M49 366L26 394L92 425Z" fill="#0b1217" stroke="#0b1217"></path><path d="M92 425L35 432L100 434Z" fill="#a63fa2" stroke="#a63fa2"></path><path d="M263 500L302 500L282 425Z" fill="#183056" stroke="#183056"></path><path d="M23 74L0 99L33 111Z" fill="#ec30a2" stroke="#ec30a2"></path><path d="M185 471L194 500L240 444Z" fill="#0d1d2b" stroke="#0d1d2b"></path><path d="M137 500L185 471L151 451Z" fill="#a63fa2" stroke="#a63fa2"></path><path d="M0 389L26 394L49 366Z" fill="#2c376b" stroke="#2c376b"></path><path d="M100 434L137 500L151 451Z" fill="#0b1217" stroke="#0b1217"></path><path d="M23 74L0 78L0 99Z" fill="#453d7e" stroke="#453d7e"></path><path d="M0 0L0 78L23 74Z" fill="#ec30a2" stroke="#ec30a2"></path><path d="M500 108L500 61L451 81Z" fill="#a63fa2" stroke="#a63fa2"></path><path d="M302 500L357 500L322 439Z" fill="#ec30a2" stroke="#ec30a2"></path><path d="M423 478L393 387L362 423Z" fill="#a63fa2" stroke="#a63fa2"></path><path d="M472 398L500 415L475 347Z" fill="#ec30a2" stroke="#ec30a2"></path><path d="M71 500L137 500L100 434Z" fill="#63418e" stroke="#63418e"></path><path d="M0 436L35 432L26 394Z" fill="#c939a4" stroke="#c939a4"></path><path d="M26 394L35 432L92 425Z" fill="#0b1217" stroke="#0b1217"></path><path d="M0 338L0 389L49 366Z" fill="#453d7e" stroke="#453d7e"></path><path d="M404 500L423 478L362 423Z" fill="#0b1217" stroke="#0b1217"></path><path d="M500 61L472 0L432 62Z" fill="#a63fa2" stroke="#a63fa2"></path><path d="M500 450L500 415L464 437Z" fill="#183056" stroke="#183056"></path><path d="M464 437L500 415L472 398Z" fill="#183056" stroke="#183056"></path><path d="M357 500L404 500L362 423Z" fill="#0b1217" stroke="#0b1217"></path><path d="M449 500L500 450L464 437Z" fill="#a63fa2" stroke="#a63fa2"></path><path d="M118 0L20 0L117 54Z" fill="#83429a" stroke="#83429a"></path><path d="M500 61L500 0L472 0Z" fill="#0d1d2b" stroke="#0d1d2b"></path><path d="M0 389L0 436L26 394Z" fill="#ec30a2" stroke="#ec30a2"></path><path d="M35 432L71 500L100 434Z" fill="#453d7e" stroke="#453d7e"></path><path d="M21 500L71 500L35 432Z" fill="#63418e" stroke="#63418e"></path><path d="M449 500L464 437L423 478Z" fill="#0b1217" stroke="#0b1217"></path><path d="M20 0L0 0L23 74Z" fill="#0e2740" stroke="#0e2740"></path><path d="M404 500L449 500L423 478Z" fill="#ec30a2" stroke="#ec30a2"></path><path d="M0 436L21 500L35 432Z" fill="#c939a4" stroke="#c939a4"></path><path d="M449 500L500 500L500 450Z" fill="#0b1217" stroke="#0b1217"></path><path d="M0 436L0 500L21 500Z" fill="#c939a4" stroke="#c939a4"></path></g></svg>