<svg id="visual" viewBox="0 0 500 500" width="500" height="500" xmlns="http://www.w3.org/2000/svg" xmlns:xlink="http://www.w3.org/1999/xlink" version="1.1"><path d="M0 51L71 86L143 31L214 31L286 36L357 36L429 51L500 31L500 0L429 0L357 0L286 0L214 0L143 0L71 0L0 0Z" fill="#ff0066"></path><path d="M0 136L71 196L143 136L214 221L286 121L357 171L429 221L500 136L500 29L429 49L357 34L286 34L214 29L143 29L71 84L0 49Z" fill="#d30045"></path><path d="M0 241L71 311L143 206L214 336L286 201L357 266L429 271L500 236L500 134L429 219L357 169L286 119L214 219L143 134L71 194L0 134Z" fill="#a70029"></path><path d="M0 416L71 416L143 421L214 446L286 431L357 446L429 451L500 426L500 234L429 269L357 264L286 199L214 334L143 204L71 309L0 239Z" fill="#720000"></path><path d="M0 501L71 501L143 501L214 501L286 501L357 501L429 501L500 501L500 424L429 449L357 444L286 429L214 444L143 419L71 414L0 414Z" fill="#000000"></path></svg>