<svg id="visual" viewBox="0 0 1920 1080" width="1920" height="1080" xmlns="http://www.w3.org/2000/svg" xmlns:xlink="http://www.w3.org/1999/xlink" version="1.1"><g stroke-width="1" stroke-linejoin="bevel"><path d="M1081.7 533L1287 506L1265 349Z" fill="#9b235d" stroke="#9b235d"></path><path d="M1265 349L1058.7 325L1081.7 533Z" fill="#ae2356" stroke="#ae2356"></path><path d="M1456.3 365L1316 217L1265 349Z" fill="#432859" stroke="#432859"></path><path d="M1265 349L1316 217L1058.7 325Z" fill="#1d2245" stroke="#1d2245"></path><path d="M1253 751L1456.3 517L1287 506Z" fill="#852561" stroke="#852561"></path><path d="M1287 506L1456.3 365L1265 349Z" fill="#0f1d38" stroke="#0f1d38"></path><path d="M1456.3 517L1456.3 365L1287 506Z" fill="#1d2245" stroke="#1d2245"></path><path d="M1316 217L1046.7 168L1058.7 325Z" fill="#00101c" stroke="#00101c"></path><path d="M1081.7 533L1253 751L1287 506Z" fill="#2f2650" stroke="#2f2650"></path><path d="M871.3 709L1099.7 758L1081.7 533Z" fill="#6f2762" stroke="#6f2762"></path><path d="M1081.7 533L1099.7 758L1253 751Z" fill="#59295f" stroke="#59295f"></path><path d="M867.3 216L827.3 397L1058.7 325Z" fill="#00101c" stroke="#00101c"></path><path d="M1058.7 325L827.3 397L1081.7 533Z" fill="#00101c" stroke="#00101c"></path><path d="M827.3 397L820.3 521L1081.7 533Z" fill="#9b235d" stroke="#9b235d"></path><path d="M1046.7 168L867.3 216L1058.7 325Z" fill="#852561" stroke="#852561"></path><path d="M820.3 521L871.3 709L1081.7 533Z" fill="#852561" stroke="#852561"></path><path d="M1253 751L1506.3 707L1456.3 517Z" fill="#59295f" stroke="#59295f"></path><path d="M1456.3 517L1687.7 376L1456.3 365Z" fill="#00101c" stroke="#00101c"></path><path d="M1258 0L1094.7 0L1046.7 168Z" fill="#9b235d" stroke="#9b235d"></path><path d="M1046.7 168L842.3 0L867.3 216Z" fill="#9b235d" stroke="#9b235d"></path><path d="M1514.3 142L1258 0L1316 217Z" fill="#1d2245" stroke="#1d2245"></path><path d="M1316 217L1258 0L1046.7 168Z" fill="#1d2245" stroke="#1d2245"></path><path d="M882.3 918L1100.7 888L1099.7 758Z" fill="#2f2650" stroke="#2f2650"></path><path d="M1099.7 758L1100.7 888L1253 751Z" fill="#6f2762" stroke="#6f2762"></path><path d="M1253 751L1476.3 880L1506.3 707Z" fill="#2f2650" stroke="#2f2650"></path><path d="M1687.7 376L1514.3 142L1456.3 365Z" fill="#9b235d" stroke="#9b235d"></path><path d="M1456.3 365L1514.3 142L1316 217Z" fill="#432859" stroke="#432859"></path><path d="M1100.7 888L1257 925L1253 751Z" fill="#0f1d38" stroke="#0f1d38"></path><path d="M1726.7 544L1687.7 376L1456.3 517Z" fill="#852561" stroke="#852561"></path><path d="M1257 925L1476.3 880L1253 751Z" fill="#0f1d38" stroke="#0f1d38"></path><path d="M1506.3 707L1726.7 544L1456.3 517Z" fill="#ae2356" stroke="#ae2356"></path><path d="M1094.7 0L842.3 0L1046.7 168Z" fill="#0f1d38" stroke="#0f1d38"></path><path d="M867.3 216L630 320L827.3 397Z" fill="#2f2650" stroke="#2f2650"></path><path d="M827.3 397L611 558L820.3 521Z" fill="#00101c" stroke="#00101c"></path><path d="M622 215L630 320L867.3 216Z" fill="#6f2762" stroke="#6f2762"></path><path d="M820.3 521L654 709L871.3 709Z" fill="#1d2245" stroke="#1d2245"></path><path d="M871.3 709L882.3 918L1099.7 758Z" fill="#ae2356" stroke="#ae2356"></path><path d="M1100.7 888L1086.7 1080L1257 925Z" fill="#1d2245" stroke="#1d2245"></path><path d="M649 918L882.3 918L871.3 709Z" fill="#852561" stroke="#852561"></path><path d="M1669.7 759L1726.7 544L1506.3 707Z" fill="#06182a" stroke="#06182a"></path><path d="M1710.7 0L1529.3 0L1514.3 142Z" fill="#0f1d38" stroke="#0f1d38"></path><path d="M1514.3 142L1529.3 0L1258 0Z" fill="#1d2245" stroke="#1d2245"></path><path d="M630 320L611 558L827.3 397Z" fill="#6f2762" stroke="#6f2762"></path><path d="M611 558L654 709L820.3 521Z" fill="#852561" stroke="#852561"></path><path d="M1476.3 880L1669.7 759L1506.3 707Z" fill="#06182a" stroke="#06182a"></path><path d="M1687.7 376L1706.7 190L1514.3 142Z" fill="#9b235d" stroke="#9b235d"></path><path d="M1920 396L1706.7 190L1687.7 376Z" fill="#9b235d" stroke="#9b235d"></path><path d="M842.3 0L622 215L867.3 216Z" fill="#00101c" stroke="#00101c"></path><path d="M630 320L443.7 525L611 558Z" fill="#9b235d" stroke="#9b235d"></path><path d="M882.3 918L1086.7 1080L1100.7 888Z" fill="#9b235d" stroke="#9b235d"></path><path d="M1257 925L1278 1080L1476.3 880Z" fill="#06182a" stroke="#06182a"></path><path d="M1086.7 1080L1278 1080L1257 925Z" fill="#432859" stroke="#432859"></path><path d="M1476.3 880L1742.7 884L1669.7 759Z" fill="#00101c" stroke="#00101c"></path><path d="M842.3 0L640 0L622 215Z" fill="#59295f" stroke="#59295f"></path><path d="M1920 179L1710.7 0L1706.7 190Z" fill="#59295f" stroke="#59295f"></path><path d="M1706.7 190L1710.7 0L1514.3 142Z" fill="#1d2245" stroke="#1d2245"></path><path d="M882.3 918L815.3 1080L1086.7 1080Z" fill="#00101c" stroke="#00101c"></path><path d="M654 709L649 918L871.3 709Z" fill="#06182a" stroke="#06182a"></path><path d="M429.7 873L649 918L654 709Z" fill="#432859" stroke="#432859"></path><path d="M1510.3 1080L1742.7 884L1476.3 880Z" fill="#1d2245" stroke="#1d2245"></path><path d="M1920 740L1920 559L1726.7 544Z" fill="#00101c" stroke="#00101c"></path><path d="M1726.7 544L1920 396L1687.7 376Z" fill="#06182a" stroke="#06182a"></path><path d="M1278 1080L1510.3 1080L1476.3 880Z" fill="#59295f" stroke="#59295f"></path><path d="M649 918L815.3 1080L882.3 918Z" fill="#1d2245" stroke="#1d2245"></path><path d="M402.7 348L443.7 525L630 320Z" fill="#0f1d38" stroke="#0f1d38"></path><path d="M611 558L421.7 697L654 709Z" fill="#432859" stroke="#432859"></path><path d="M402.7 348L630 320L622 215Z" fill="#1d2245" stroke="#1d2245"></path><path d="M1920 559L1920 396L1726.7 544Z" fill="#06182a" stroke="#06182a"></path><path d="M1920 740L1726.7 544L1669.7 759Z" fill="#432859" stroke="#432859"></path><path d="M438.7 144L402.7 348L622 215Z" fill="#6f2762" stroke="#6f2762"></path><path d="M1920 396L1920 179L1706.7 190Z" fill="#6f2762" stroke="#6f2762"></path><path d="M640 0L438.7 144L622 215Z" fill="#6f2762" stroke="#6f2762"></path><path d="M218.3 554L421.7 697L443.7 525Z" fill="#59295f" stroke="#59295f"></path><path d="M443.7 525L421.7 697L611 558Z" fill="#9b235d" stroke="#9b235d"></path><path d="M649 918L630 1080L815.3 1080Z" fill="#06182a" stroke="#06182a"></path><path d="M1920 883L1920 740L1742.7 884Z" fill="#6f2762" stroke="#6f2762"></path><path d="M1742.7 884L1920 740L1669.7 759Z" fill="#0f1d38" stroke="#0f1d38"></path><path d="M428.7 1080L630 1080L649 918Z" fill="#1d2245" stroke="#1d2245"></path><path d="M1510.3 1080L1724.7 1080L1742.7 884Z" fill="#00101c" stroke="#00101c"></path><path d="M217.3 750L429.7 873L421.7 697Z" fill="#1d2245" stroke="#1d2245"></path><path d="M421.7 697L429.7 873L654 709Z" fill="#6f2762" stroke="#6f2762"></path><path d="M1920 1080L1920 883L1742.7 884Z" fill="#0f1d38" stroke="#0f1d38"></path><path d="M1920 179L1920 0L1710.7 0Z" fill="#432859" stroke="#432859"></path><path d="M214.3 166L202.3 359L402.7 348Z" fill="#06182a" stroke="#06182a"></path><path d="M640 0L388.7 0L438.7 144Z" fill="#0f1d38" stroke="#0f1d38"></path><path d="M402.7 348L218.3 554L443.7 525Z" fill="#852561" stroke="#852561"></path><path d="M202.3 359L218.3 554L402.7 348Z" fill="#6f2762" stroke="#6f2762"></path><path d="M214.3 166L402.7 348L438.7 144Z" fill="#ae2356" stroke="#ae2356"></path><path d="M429.7 873L428.7 1080L649 918Z" fill="#852561" stroke="#852561"></path><path d="M246.3 904L428.7 1080L429.7 873Z" fill="#06182a" stroke="#06182a"></path><path d="M1724.7 1080L1920 1080L1742.7 884Z" fill="#59295f" stroke="#59295f"></path><path d="M388.7 0L214.3 166L438.7 144Z" fill="#2f2650" stroke="#2f2650"></path><path d="M0 694L217.3 750L218.3 554Z" fill="#852561" stroke="#852561"></path><path d="M218.3 554L217.3 750L421.7 697Z" fill="#9b235d" stroke="#9b235d"></path><path d="M217.3 750L246.3 904L429.7 873Z" fill="#ae2356" stroke="#ae2356"></path><path d="M0 325L0 519L202.3 359Z" fill="#0f1d38" stroke="#0f1d38"></path><path d="M388.7 0L205.3 0L214.3 166Z" fill="#432859" stroke="#432859"></path><path d="M0 867L246.3 904L217.3 750Z" fill="#ae2356" stroke="#ae2356"></path><path d="M0 867L190.3 1080L246.3 904Z" fill="#1d2245" stroke="#1d2245"></path><path d="M246.3 904L190.3 1080L428.7 1080Z" fill="#06182a" stroke="#06182a"></path><path d="M0 519L218.3 554L202.3 359Z" fill="#6f2762" stroke="#6f2762"></path><path d="M0 325L202.3 359L0 214Z" fill="#00101c" stroke="#00101c"></path><path d="M0 214L202.3 359L214.3 166Z" fill="#06182a" stroke="#06182a"></path><path d="M0 0L0 214L214.3 166Z" fill="#432859" stroke="#432859"></path><path d="M0 519L0 694L218.3 554Z" fill="#6f2762" stroke="#6f2762"></path><path d="M0 694L0 867L217.3 750Z" fill="#9b235d" stroke="#9b235d"></path><path d="M205.3 0L0 0L214.3 166Z" fill="#ae2356" stroke="#ae2356"></path><path d="M0 867L0 1080L190.3 1080Z" fill="#59295f" stroke="#59295f"></path></g></svg>