<svg width="270" height="87" viewBox="0 0 270 87" fill="none" xmlns="http://www.w3.org/2000/svg">
<path d="M92.8949 76.203C88.6643 76.203 85.0228 75.3462 81.9704 73.6325C78.9359 71.901 76.5975 69.4555 74.9552 66.296C73.313 63.1187 72.4919 59.3612 72.4919 55.0235C72.4919 50.793 73.313 47.0801 74.9552 43.8849C76.5975 40.6897 78.9091 38.1995 81.8901 36.4145C84.889 34.6295 88.4055 33.7369 92.4397 33.7369C95.1529 33.7369 97.6788 34.1743 100.017 35.0489C102.373 35.9058 104.426 37.1999 106.176 38.9314C107.943 40.6629 109.317 42.8406 110.299 45.4646C111.281 48.0708 111.772 51.1232 111.772 54.6219V57.7546H77.0437V50.6859H101.035C101.035 49.0436 100.678 47.5888 99.9636 46.3215C99.2496 45.0541 98.2589 44.0634 96.9915 43.3494C95.742 42.6175 94.2872 42.2516 92.6271 42.2516C90.8956 42.2516 89.3605 42.6532 88.0217 43.4565C86.7008 44.2419 85.6655 45.304 84.9157 46.6428C84.166 47.9637 83.7822 49.4363 83.7644 51.0607V57.7814C83.7644 59.8163 84.1393 61.5746 84.889 63.0562C85.6565 64.5378 86.7365 65.6802 88.1288 66.4835C89.5211 67.2867 91.1723 67.6884 93.0823 67.6884C94.3497 67.6884 95.5099 67.5098 96.5631 67.1528C97.6163 66.7958 98.5177 66.2603 99.2674 65.5463C100.017 64.8323 100.588 63.9576 100.981 62.9223L111.531 63.6185C110.995 66.1532 109.897 68.3667 108.237 70.2588C106.595 72.1331 104.471 73.5968 101.865 74.65C99.2764 75.6853 96.2864 76.203 92.8949 76.203Z" fill="url(#paint0_linear_8_429)"/>
<path d="M119.429 75.3997V20.5634H130.836V41.1805H131.184C131.684 40.0738 132.407 38.9492 133.353 37.8068C134.317 36.6465 135.566 35.6826 137.101 34.9151C138.654 34.1296 140.582 33.7369 142.885 33.7369C145.884 33.7369 148.651 34.5224 151.185 36.0932C153.72 37.6462 155.746 39.9935 157.263 43.1352C158.781 46.259 159.539 50.1771 159.539 54.8896C159.539 59.4772 158.798 63.3507 157.317 66.5102C155.853 69.6519 153.854 72.0349 151.319 73.6593C148.802 75.2658 145.982 76.0691 142.858 76.0691C140.645 76.0691 138.761 75.7032 137.208 74.9713C135.673 74.2394 134.415 73.3201 133.433 72.2134C132.451 71.0888 131.702 69.9554 131.184 68.8129H130.675V75.3997H119.429ZM130.595 54.8361C130.595 57.2816 130.934 59.4147 131.612 61.2354C132.291 63.0562 133.272 64.4753 134.558 65.4928C135.843 66.4924 137.405 66.9922 139.243 66.9922C141.1 66.9922 142.671 66.4835 143.956 65.466C145.241 64.4307 146.214 63.0026 146.874 61.1819C147.553 59.3433 147.892 57.228 147.892 54.8361C147.892 52.462 147.562 50.3735 146.901 48.5706C146.241 46.7677 145.268 45.3575 143.983 44.3401C142.697 43.3226 141.118 42.8139 139.243 42.8139C137.387 42.8139 135.816 43.3047 134.531 44.2865C133.263 45.2683 132.291 46.6606 131.612 48.4635C130.934 50.2664 130.595 52.3906 130.595 54.8361Z" fill="url(#paint1_linear_8_429)"/>
<path d="M193.524 57.8885V34.2724H204.931V75.3997H193.979V67.9293H193.551C192.623 70.3391 191.079 72.2759 188.919 73.7396C186.777 75.2034 184.162 75.9352 181.074 75.9352C178.325 75.9352 175.906 75.3105 173.817 74.0609C171.729 72.8114 170.096 71.0353 168.917 68.7326C167.757 66.4299 167.168 63.672 167.15 60.459V34.2724H178.557V58.424C178.574 60.8517 179.226 62.7706 180.511 64.1808C181.796 65.5909 183.519 66.296 185.679 66.296C187.053 66.296 188.339 65.9836 189.535 65.3589C190.731 64.7163 191.694 63.7702 192.426 62.5207C193.176 61.2711 193.542 59.7271 193.524 57.8885Z" fill="url(#paint2_linear_8_429)"/>
<path d="M225.461 20.5634V75.3997H214.054V20.5634H225.461Z" fill="url(#paint3_linear_8_429)"/>
<path d="M246.326 76.1762C243.702 76.1762 241.363 75.721 239.31 74.8107C237.258 73.8824 235.633 72.5169 234.437 70.714C233.259 68.8933 232.67 66.6263 232.67 63.913C232.67 61.6282 233.089 59.7092 233.928 58.1563C234.767 56.6033 235.91 55.3537 237.356 54.4077C238.802 53.4616 240.444 52.7476 242.282 52.2656C244.139 51.7837 246.085 51.4445 248.12 51.2482C250.511 50.9983 252.439 50.7662 253.903 50.552C255.367 50.3199 256.429 49.9808 257.089 49.5345C257.75 49.0883 258.08 48.4278 258.08 47.5531V47.3925C258.08 45.6967 257.545 44.3847 256.473 43.4565C255.42 42.5282 253.921 42.0641 251.975 42.0641C249.922 42.0641 248.289 42.5193 247.075 43.4297C245.861 44.3222 245.058 45.4468 244.665 46.8034L234.116 45.9466C234.651 43.4475 235.705 41.2876 237.275 39.4669C238.846 37.6283 240.872 36.2181 243.353 35.2364C245.853 34.2367 248.744 33.7369 252.029 33.7369C254.314 33.7369 256.5 34.0047 258.589 34.5402C260.695 35.0757 262.56 35.9058 264.185 37.0303C265.827 38.1549 267.121 39.6008 268.067 41.368C269.013 43.1173 269.486 45.2147 269.486 47.6602V75.3997H258.669V69.6965H258.348C257.687 70.9818 256.804 72.1152 255.697 73.097C254.59 74.0609 253.26 74.8196 251.707 75.3729C250.154 75.9085 248.361 76.1762 246.326 76.1762ZM249.592 68.3042C251.27 68.3042 252.752 67.974 254.037 67.3135C255.322 66.6352 256.331 65.7248 257.063 64.5824C257.794 63.44 258.16 62.1458 258.16 60.6999V56.3355C257.803 56.5676 257.312 56.7818 256.688 56.9781C256.081 57.1566 255.394 57.3262 254.626 57.4869C253.858 57.6297 253.091 57.7635 252.323 57.8885C251.556 57.9956 250.86 58.0938 250.235 58.183C248.896 58.3794 247.727 58.6918 246.727 59.1202C245.728 59.5486 244.951 60.1287 244.398 60.8606C243.844 61.5746 243.568 62.4671 243.568 63.5381C243.568 65.0911 244.13 66.2782 245.255 67.0993C246.397 67.9026 247.843 68.3042 249.592 68.3042Z" fill="url(#paint4_linear_8_429)"/>
<path d="M62.015 38.6329C54.489 58.74 67.2623 123.985 46.9262 58.5997C45.869 55.2004 43.7826 51.8877 40.3758 50.8549C20.7927 44.9186 0 80.1369 0 66.3141C2.51344 -13.2079 5.02688 57.6984 27.6834 40.5521C28.799 39.7078 29.6984 38.5928 30.4889 37.4385C47.5575 12.5157 99.7189 -33.2065 62.015 38.6329Z" fill="url(#paint5_linear_8_429)"/>
<defs>
<linearGradient id="paint0_linear_8_429" x1="50.46" y1="-20.4161" x2="194.566" y2="-4.69699" gradientUnits="userSpaceOnUse">
<stop stop-color="#5200FF"/>
<stop offset="1" stop-color="#E90000"/>
</linearGradient>
<linearGradient id="paint1_linear_8_429" x1="50.46" y1="-20.4161" x2="194.566" y2="-4.69699" gradientUnits="userSpaceOnUse">
<stop stop-color="#5200FF"/>
<stop offset="1" stop-color="#E90000"/>
</linearGradient>
<linearGradient id="paint2_linear_8_429" x1="50.46" y1="-20.4161" x2="194.566" y2="-4.69699" gradientUnits="userSpaceOnUse">
<stop stop-color="#5200FF"/>
<stop offset="1" stop-color="#E90000"/>
</linearGradient>
<linearGradient id="paint3_linear_8_429" x1="50.46" y1="-20.4161" x2="194.566" y2="-4.69699" gradientUnits="userSpaceOnUse">
<stop stop-color="#5200FF"/>
<stop offset="1" stop-color="#E90000"/>
</linearGradient>
<linearGradient id="paint4_linear_8_429" x1="50.46" y1="-20.4161" x2="194.566" y2="-4.69699" gradientUnits="userSpaceOnUse">
<stop stop-color="#5200FF"/>
<stop offset="1" stop-color="#E90000"/>
</linearGradient>
<linearGradient id="paint5_linear_8_429" x1="-6.94774" y1="5.52453" x2="72.9236" y2="79.9753" gradientUnits="userSpaceOnUse">
<stop stop-color="#0500FF"/>
<stop offset="1" stop-color="#E30000"/>
</linearGradient>
</defs>
</svg>
